<svg xmlns="http://www.w3.org/2000/svg" viewBox="0 0 800 520">
  <defs>
    <linearGradient id="bg1" x1="0%" y1="0%" x2="0%" y2="100%">
      <stop offset="0%" stop-color="#dbe9ef"/>
      <stop offset="100%" stop-color="#f8f1ef"/>
    </linearGradient>
    <linearGradient id="sea" x1="0%" y1="0%" x2="0%" y2="100%">
      <stop offset="0%" stop-color="#4a90b2" stop-opacity="0.9"/>
      <stop offset="100%" stop-color="#0e4765" stop-opacity="0.9"/>
    </linearGradient>
    <linearGradient id="sunset" x1="0%" y1="0%" x2="100%" y2="0%">
      <stop offset="0%" stop-color="#fcb97d"/>
      <stop offset="100%" stop-color="#f37a6d"/>
    </linearGradient>
  </defs>
  <rect width="800" height="520" rx="36" fill="url(#bg1)"/>
  <rect x="-20" y="240" width="840" height="210" fill="url(#sea)" opacity="0.8"/>
  <circle cx="140" cy="140" r="70" fill="url(#sunset)" opacity="0.9"/>
  <path d="M100 280 C160 240 240 240 300 280 C360 320 440 320 520 280 C600 240 680 240 740 280 L740 360 L100 360 Z" fill="#fef7f2" opacity="0.9"/>
  <rect x="210" y="230" width="380" height="170" rx="26" fill="#fefefe" stroke="#0e4765" stroke-width="6"/>
  <rect x="250" y="260" width="300" height="110" rx="22" fill="#e9f0f3" stroke="#0e4765" stroke-width="4"/>
  <rect x="320" y="240" width="40" height="160" rx="10" fill="#0e4765" opacity="0.2"/>
  <rect x="450" y="240" width="40" height="160" rx="10" fill="#0e4765" opacity="0.2"/>
  <rect x="260" y="320" width="80" height="40" rx="8" fill="#f37a6d"/>
  <rect x="460" y="320" width="80" height="40" rx="8" fill="#fcb97d"/>
  <circle cx="180" cy="340" r="26" fill="#7cc4c8"/>
  <circle cx="620" cy="340" r="26" fill="#7cc4c8"/>
  <text x="400" y="420" text-anchor="middle" font-family="Playfair Display, serif" font-size="36" fill="#0f1a24">Seaside Atelier</text>
  <text x="400" y="455" text-anchor="middle" font-family="Inter, sans-serif" font-size="18" fill="#0e4765">Sunlit terraces above the sea</text>
</svg>
