<svg xmlns="http://www.w3.org/2000/svg" viewBox="0 0 800 520">
  <defs>
    <linearGradient id="bg2" x1="0%" y1="0%" x2="0%" y2="100%">
      <stop offset="0%" stop-color="#e8efe6"/>
      <stop offset="100%" stop-color="#f6f1ec"/>
    </linearGradient>
    <linearGradient id="hill" x1="0%" y1="0%" x2="100%" y2="0%">
      <stop offset="0%" stop-color="#9dc5a4"/>
      <stop offset="100%" stop-color="#6ba07c"/>
    </linearGradient>
  </defs>
  <rect width="800" height="520" rx="36" fill="url(#bg2)"/>
  <path d="M-10 320 C120 260 200 260 320 300 C440 340 540 240 700 280 C760 300 810 330 810 330 L810 520 L-10 520 Z" fill="url(#hill)" opacity="0.8"/>
  <path d="M90 270 C180 210 260 210 360 250 C460 290 560 200 710 240 L710 520 L90 520 Z" fill="#e3d7ce" opacity="0.75"/>
  <rect x="200" y="190" width="380" height="200" rx="26" fill="#fefefe" stroke="#0e4765" stroke-width="5"/>
  <rect x="240" y="225" width="300" height="130" rx="22" fill="#eaf2eb" stroke="#0e4765" stroke-width="4"/>
  <rect x="230" y="315" width="340" height="30" rx="12" fill="#0e4765" opacity="0.12"/>
  <rect x="270" y="255" width="60" height="100" rx="10" fill="#0e4765" opacity="0.2"/>
  <rect x="470" y="255" width="60" height="100" rx="10" fill="#0e4765" opacity="0.2"/>
  <path d="M190 360 L610 360" stroke="#0e4765" stroke-width="6" stroke-linecap="round"/>
  <circle cx="230" cy="362" r="18" fill="#6ba07c"/>
  <circle cx="570" cy="362" r="18" fill="#6ba07c"/>
  <circle cx="150" cy="170" r="40" fill="#6ba07c" opacity="0.35"/>
  <circle cx="640" cy="150" r="55" fill="#6ba07c" opacity="0.25"/>
  <text x="400" y="430" text-anchor="middle" font-family="Playfair Display, serif" font-size="36" fill="#0f1a24">Hillside Hideaway</text>
  <text x="400" y="465" text-anchor="middle" font-family="Inter, sans-serif" font-size="18" fill="#0e4765">Vineyard views from the deck</text>
</svg>
