<svg xmlns="http://www.w3.org/2000/svg" viewBox="0 0 800 520">
  <defs>
    <linearGradient id="bg3" x1="0%" y1="0%" x2="100%" y2="100%">
      <stop offset="0%" stop-color="#e9e3f2"/>
      <stop offset="100%" stop-color="#f6f1ec"/>
    </linearGradient>
  </defs>
  <rect width="800" height="520" rx="36" fill="url(#bg3)"/>
  <rect x="90" y="140" width="620" height="260" rx="34" fill="#ffffff" stroke="#0e4765" stroke-width="6"/>
  <rect x="120" y="180" width="560" height="180" rx="26" fill="#eef2f9" stroke="#0e4765" stroke-width="4"/>
  <rect x="120" y="320" width="560" height="60" rx="20" fill="#d7ddec"/>
  <rect x="170" y="200" width="70" height="130" rx="14" fill="#0e4765" opacity="0.15"/>
  <rect x="560" y="200" width="70" height="130" rx="14" fill="#0e4765" opacity="0.15"/>
  <rect x="280" y="200" width="240" height="130" rx="18" fill="#fefefe" stroke="#0e4765" stroke-width="3"/>
  <rect x="300" y="220" width="200" height="60" rx="12" fill="#f6efe7"/>
  <rect x="320" y="280" width="160" height="20" rx="8" fill="#0e4765" opacity="0.2"/>
  <circle cx="400" cy="130" r="44" fill="#0e4765" opacity="0.1"/>
  <circle cx="640" cy="180" r="30" fill="#0e4765" opacity="0.1"/>
  <circle cx="180" cy="180" r="24" fill="#0e4765" opacity="0.1"/>
  <text x="400" y="430" text-anchor="middle" font-family="Playfair Display, serif" font-size="36" fill="#0f1a24">Terrace Maison</text>
  <text x="400" y="465" text-anchor="middle" font-family="Inter, sans-serif" font-size="18" fill="#0e4765">City terraces with luminous interiors</text>
</svg>
